<mxfile host="app.diagrams.net" agent="Mozilla/5.0 (Windows NT 10.0; Win64; x64) AppleWebKit/537.36 (KHTML, like Gecko) Chrome/131.0.0.0 Safari/537.36" version="25.0.3">
  <diagram name="P치gina-1" id="7d_oM0EF3G9a3d7N5ZLs">
    <mxGraphModel dx="819" dy="446" grid="1" gridSize="10" guides="1" tooltips="1" connect="1" arrows="1" fold="1" page="1" pageScale="1" pageWidth="850" pageHeight="1100" math="0" shadow="0">
      <root>
        <mxCell id="0" />
        <mxCell id="1" parent="0" />
        <mxCell id="aLfL8TfDF0AlkJ1gZnpp-1" value="usuario" style="shape=umlActor;verticalLabelPosition=bottom;verticalAlign=top;html=1;outlineConnect=0;" vertex="1" parent="1">
          <mxGeometry x="70" y="410" width="30" height="60" as="geometry" />
        </mxCell>
        <mxCell id="aLfL8TfDF0AlkJ1gZnpp-2" value="" style="endArrow=classic;html=1;rounded=0;entryX=0;entryY=0.444;entryDx=0;entryDy=0;entryPerimeter=0;" edge="1" parent="1" target="aLfL8TfDF0AlkJ1gZnpp-3">
          <mxGeometry width="50" height="50" relative="1" as="geometry">
            <mxPoint x="120" y="430" as="sourcePoint" />
            <mxPoint x="240" y="430" as="targetPoint" />
          </mxGeometry>
        </mxCell>
        <mxCell id="aLfL8TfDF0AlkJ1gZnpp-3" value="Consulta datos del usuario" style="shape=umlBoundary;whiteSpace=wrap;html=1;" vertex="1" parent="1">
          <mxGeometry x="230" y="390" width="110" height="90" as="geometry" />
        </mxCell>
        <mxCell id="aLfL8TfDF0AlkJ1gZnpp-4" value="Validaci칩n de informacion" style="ellipse;shape=umlControl;whiteSpace=wrap;html=1;" vertex="1" parent="1">
          <mxGeometry x="450" y="390" width="80" height="90" as="geometry" />
        </mxCell>
        <mxCell id="aLfL8TfDF0AlkJ1gZnpp-5" value="" style="endArrow=classic;html=1;rounded=0;entryX=0.009;entryY=0.457;entryDx=0;entryDy=0;entryPerimeter=0;" edge="1" parent="1" target="aLfL8TfDF0AlkJ1gZnpp-4">
          <mxGeometry width="50" height="50" relative="1" as="geometry">
            <mxPoint x="340" y="430" as="sourcePoint" />
            <mxPoint x="450" y="427" as="targetPoint" />
          </mxGeometry>
        </mxCell>
        <mxCell id="aLfL8TfDF0AlkJ1gZnpp-8" value="Informaci칩n del usuario" style="ellipse;shape=umlEntity;whiteSpace=wrap;html=1;" vertex="1" parent="1">
          <mxGeometry x="640" y="390" width="80" height="80" as="geometry" />
        </mxCell>
        <mxCell id="aLfL8TfDF0AlkJ1gZnpp-9" value="" style="endArrow=classic;html=1;rounded=0;exitX=1.002;exitY=0.54;exitDx=0;exitDy=0;exitPerimeter=0;entryX=0.005;entryY=0.621;entryDx=0;entryDy=0;entryPerimeter=0;" edge="1" parent="1" source="aLfL8TfDF0AlkJ1gZnpp-4" target="aLfL8TfDF0AlkJ1gZnpp-8">
          <mxGeometry width="50" height="50" relative="1" as="geometry">
            <mxPoint x="681.0400000000002" y="481.43999999999994" as="sourcePoint" />
            <mxPoint x="480" y="570" as="targetPoint" />
          </mxGeometry>
        </mxCell>
        <mxCell id="aLfL8TfDF0AlkJ1gZnpp-10" value="" style="endArrow=classic;html=1;rounded=0;exitX=0.5;exitY=1;exitDx=0;exitDy=0;" edge="1" parent="1" source="aLfL8TfDF0AlkJ1gZnpp-8" target="aLfL8TfDF0AlkJ1gZnpp-11">
          <mxGeometry width="50" height="50" relative="1" as="geometry">
            <mxPoint x="430" y="620" as="sourcePoint" />
            <mxPoint x="480" y="570" as="targetPoint" />
          </mxGeometry>
        </mxCell>
        <mxCell id="aLfL8TfDF0AlkJ1gZnpp-11" value="Enviar Informaci칩n" style="ellipse;shape=umlControl;whiteSpace=wrap;html=1;" vertex="1" parent="1">
          <mxGeometry x="645" y="550" width="70" height="80" as="geometry" />
        </mxCell>
        <mxCell id="aLfL8TfDF0AlkJ1gZnpp-12" value="" style="endArrow=classic;html=1;rounded=0;exitX=0.033;exitY=0.65;exitDx=0;exitDy=0;exitPerimeter=0;" edge="1" parent="1" source="aLfL8TfDF0AlkJ1gZnpp-11">
          <mxGeometry width="50" height="50" relative="1" as="geometry">
            <mxPoint x="430" y="620" as="sourcePoint" />
            <mxPoint x="300" y="600" as="targetPoint" />
          </mxGeometry>
        </mxCell>
        <mxCell id="aLfL8TfDF0AlkJ1gZnpp-13" value="resultado" style="shape=umlBoundary;whiteSpace=wrap;html=1;" vertex="1" parent="1">
          <mxGeometry x="200" y="560" width="100" height="80" as="geometry" />
        </mxCell>
        <mxCell id="aLfL8TfDF0AlkJ1gZnpp-14" value="" style="endArrow=classic;html=1;rounded=0;exitX=0;exitY=0.5;exitDx=0;exitDy=0;exitPerimeter=0;" edge="1" parent="1" source="aLfL8TfDF0AlkJ1gZnpp-13">
          <mxGeometry width="50" height="50" relative="1" as="geometry">
            <mxPoint x="30" y="540" as="sourcePoint" />
            <mxPoint x="80" y="490" as="targetPoint" />
            <Array as="points">
              <mxPoint x="80" y="600" />
            </Array>
          </mxGeometry>
        </mxCell>
      </root>
    </mxGraphModel>
  </diagram>
</mxfile>
